<svg xmlns="http://www.w3.org/2000/svg" xmlns:xlink="http://www.w3.org/1999/xlink"
     width="240" height="220" viewBox="0 0 240 220" role="img" aria-labelledby="title desc">
  <title id="title">JD Electrical icon</title>
  <desc id="desc">Editable vector logo for JD Electrical.</desc>

<g id="jd-symbol" transform="translate(12 10) scale(1.08)" fill="none" stroke-linejoin="round">
  <path id="outer-d-route" d="M45 25 H120 C162 25 195 58 195 100 C195 142 162 175 120 175 H47 L24 153"
        stroke="#00182E" stroke-width="11" stroke-linecap="round"/>
  <path id="inner-d-route" d="M45 52 H113 C145 52 169 74 169 101 C169 130 146 153 116 153"
        stroke="#00182E" stroke-width="11" stroke-linecap="round"/>
  <path id="integrated-j-route" d="M79 70 V121 C79 141 65 153 45 153 H22"
        stroke="#00182E" stroke-width="11" stroke-linecap="square"/>
  <g id="connection-nodes">
    <circle cx="45" cy="25" r="9" fill="#FF6400" stroke="none"/>
    <circle cx="45" cy="25" r="4" fill="#FFFFFF" stroke="none"/>
    <circle cx="116" cy="153" r="9" fill="#FF6400" stroke="none"/>
    <circle cx="116" cy="153" r="4" fill="#FFFFFF" stroke="none"/>
  </g>
</g>
</svg>
